<mxfile host="65bd71144e">
    <diagram id="q1VDmT2x7jByDIxnXjs6" name="ページ1">
        <mxGraphModel dx="1288" dy="1294" grid="1" gridSize="10" guides="1" tooltips="1" connect="1" arrows="1" fold="1" page="1" pageScale="1" pageWidth="827" pageHeight="1169" math="0" shadow="0">
            <root>
                <mxCell id="0"/>
                <mxCell id="1" parent="0"/>
                <mxCell id="2" value="" style="rounded=0;whiteSpace=wrap;html=1;" vertex="1" parent="1">
                    <mxGeometry x="54" y="60" width="526" height="430" as="geometry"/>
                </mxCell>
                <mxCell id="3" value="リバーシで学ぶアプリケーション設計入門" style="rounded=0;whiteSpace=wrap;html=1;" vertex="1" parent="1">
                    <mxGeometry x="54" y="60" width="526" height="80" as="geometry"/>
                </mxCell>
                <mxCell id="4" value="対戦する" style="rounded=1;whiteSpace=wrap;html=1;" vertex="1" parent="1">
                    <mxGeometry x="260" y="170" width="80" height="40" as="geometry"/>
                </mxCell>
                <mxCell id="5" value="過去の対戦結果" style="rounded=0;whiteSpace=wrap;html=1;" vertex="1" parent="1">
                    <mxGeometry x="100" y="250" width="440" height="210" as="geometry"/>
                </mxCell>
                <mxCell id="7" value="" style="rounded=0;whiteSpace=wrap;html=1;" vertex="1" parent="1">
                    <mxGeometry x="680" y="60" width="526" height="530" as="geometry"/>
                </mxCell>
                <mxCell id="8" value="リバーシで学ぶアプリケーション設計入門" style="rounded=0;whiteSpace=wrap;html=1;" vertex="1" parent="1">
                    <mxGeometry x="680" y="60" width="526" height="80" as="geometry"/>
                </mxCell>
                <mxCell id="9" value="白の番はスキップです" style="rounded=1;whiteSpace=wrap;html=1;" vertex="1" parent="1">
                    <mxGeometry x="886" y="170" width="80" height="40" as="geometry"/>
                </mxCell>
                <mxCell id="10" value="盤面" style="rounded=0;whiteSpace=wrap;html=1;" vertex="1" parent="1">
                    <mxGeometry x="800" y="250" width="290" height="220" as="geometry"/>
                </mxCell>
                <mxCell id="11" value="次は黒の板です" style="text;html=1;strokeColor=none;fillColor=none;align=center;verticalAlign=middle;whiteSpace=wrap;rounded=0;" vertex="1" parent="1">
                    <mxGeometry x="895.5" y="520" width="95" height="30" as="geometry"/>
                </mxCell>
            </root>
        </mxGraphModel>
    </diagram>
</mxfile>
